<?xml version="1.0" encoding="UTF-8"?><svg id="Layer_2" xmlns="http://www.w3.org/2000/svg" viewBox="0 0 292.31 462.4"><defs><style>.cls-1{fill:#fff;}</style></defs><g id="Layer_1-2"><path class="cls-1" d="M177.12,462.4c-9.69,0-20.86-12.01-24.2-15.87-13.18-15.25-21.31-38.29-21.75-61.64-.02-.85.09-2.08.3-4.55.21-2.46.71-8.1.64-11.4-2.5-.06-5.62.18-8.67.4-5.73.42-11.13.82-15.07-.28h0c-2.98-.83-5.34-3.03-6.62-6.19-1.57-3.84-1.28-8.58.73-12.05,2.76-4.77,8.27-9.55,14.1-14.6,3.5-3.03,7.09-6.14,9.59-8.9C66.93,296.87,4.1,236.48.18,155.03c-1.2-25.01,3.52-48.92,14.03-71.08,9.89-20.84,24.8-39.34,43.13-53.49C95.59.94,144.21-7.62,190.73,6.97c53.1,16.66,93.42,65,100.33,120.29,5.23,41.84-5.98,83.86-32.43,121.5-22.28,31.72-54.94,59.47-92.38,78.59,2.57,2.91,6.16,6.02,9.64,9.04,4.79,4.16,9.75,8.46,12.93,12.9,2.8,3.91,3.69,8.81,2.32,12.8-1.14,3.32-3.71,5.72-7.22,6.75-3.18.93-8.43.77-16.68.4-3.03-.14-7.18-.32-9.82-.26-4.6,26.65,2.87,50.75,21.22,68.15.6.57,1.49,1.17,2.44,1.82,3.31,2.24,10.18,6.89,6.2,16.24-1.69,3.98-4.7,6.49-8.47,7.08-.56.09-1.12.13-1.7.13ZM131.01,20.54l.48,4.98c-45.69,4.4-88.47,40.72-101.74,86.36-24.19,83.25,41.81,163.63,116.81,197.84,46.62-22.8,101.04-67.7,116.32-126.72,11.01-42.54,1.99-84.9-24.75-116.22-25.84-30.26-64.71-45.31-106.64-41.26l-.48-4.98Z"/></g></svg>