<?xml version="1.0" encoding="UTF-8"?>
<svg id="Layer_2" xmlns="http://www.w3.org/2000/svg" version="1.1" viewBox="0 0 292.3 462.4">
  <!-- Generator: Adobe Illustrator 29.4.0, SVG Export Plug-In . SVG Version: 2.1.0 Build 152)  -->
  <defs>
    <style>
      .st0 {
        fill: #fff;
      }
    </style>
  </defs>
  <path class="st0" d="M177.1,462.4c-9.7,0-20.9-12-24.2-15.9-13.2-15.2-21.3-38.3-21.8-61.6,0-.9,0-2.1.3-4.5.2-2.5.7-8.1.6-11.4-2.5,0-5.6.2-8.7.4-5.7.4-11.1.8-15.1-.3h0c-3-.8-5.3-3-6.6-6.2-1.6-3.8-1.3-8.6.7-12,2.8-4.8,8.3-9.5,14.1-14.6,3.5-3,7.1-6.1,9.6-8.9C66.9,296.9,4.1,236.5.2,155c-1.2-25,3.5-48.9,14-71.1,9.9-20.8,24.8-39.3,43.1-53.5C95.6.9,144.2-7.6,190.7,7c53.1,16.7,93.4,65,100.3,120.3,5.2,41.8-6,83.9-32.4,121.5-22.3,31.7-54.9,59.5-92.4,78.6,2.6,2.9,6.2,6,9.6,9,4.8,4.2,9.8,8.5,12.9,12.9,2.8,3.9,3.7,8.8,2.3,12.8-1.1,3.3-3.7,5.7-7.2,6.8-3.2.9-8.4.8-16.7.4-3-.1-7.2-.3-9.8-.3-4.6,26.6,2.9,50.8,21.2,68.1.6.6,1.5,1.2,2.4,1.8,3.3,2.2,10.2,6.9,6.2,16.2-1.7,4-4.7,6.5-8.5,7.1-.6,0-1.1.1-1.7.1h0Z"/>
</svg>