<?xml version="1.0" encoding="UTF-8"?><svg id="Layer_2" xmlns="http://www.w3.org/2000/svg" viewBox="0 0 237.23 173.68"><defs><style>.cls-1{fill:#fff;}</style></defs><g id="Layer_1-2"><path class="cls-1" d="M.2,141.05c-.38-3.52-.11-8.84,0-12.51.49-15.92,2.19-32.88,4.22-48.82C8.67,46.5,11.74,9.7,51.11,1.37c18.24-3.86,23.33,1.09,38.99,6.38,13.22,4.47,42.13,4.67,55.44.57,7.89-2.43,15.41-7.37,23.85-8.1,29.28-2.51,51.83,16.49,57.95,44.37,5.71,26,9.36,59.84,9.88,86.47.33,17.13-4.61,28.94-19.92,37.56-31.74,17.86-48.47-17.59-68.51-34.76-2.92-2.5-6.2-4.78-10-5.74-12.66.78-26.84-1.18-39.32-.06-9.07.81-19.97,15.7-26.12,22.04-16.13,16.61-31.16,32.89-55.24,17.27-8.43-5.47-16.8-16.02-17.91-26.32ZM58.42,17.96c-23.95,2.45-29.57,20.81-33.1,41s-6.07,41.34-7.1,61.92c-.71,14.27-3.09,24.52,10.99,32.59,9.64,5.52,15.43.25,22.6-6.38,12.67-11.72,27.25-35.17,45.8-36.63,13.69-1.07,28.76.83,42.59.02,20.64,1.84,35.78,30.87,51.93,42.07,7.14,4.95,11.3,4.33,18.35-.47,8.4-5.72,9.32-10.83,9.13-20.55-.39-20.53-3.01-43.06-6.11-63.37-3.05-19.95-5.18-41.72-27.69-48.73-16.25-5.06-21.74,1.72-35.76,5.92-15.57,4.66-46.79,4.68-62.38.11-11.11-3.26-16.6-8.8-29.26-7.51Z"/><path class="cls-1" d="M75.18,58.13h15.51c.62,0,3.73,2.36,4.33,3.08,3.57,4.38,1.97,11.55-3.3,13.7-.36.14-2.72.82-2.88.82h-13.66v13.67c0,.16-.68,2.53-.83,2.88-2.23,5.25-9.25,6.92-13.68,3.3-.73-.59-3.08-3.71-3.08-4.33v-15.52h-14.12c-.25,0-2.23-.79-2.72-.99-5.05-2.08-6.78-8.35-3.73-12.88.77-1.15,3.75-3.74,5.06-3.74h14.81l.69-.69v-14.82c0-1.32,2.59-4.29,3.73-5.07,4.53-3.05,10.79-1.31,12.87,3.74.2.49.99,2.47.99,2.72v14.13Z"/><ellipse class="cls-1" cx="183.91" cy="49.43" rx="12.99" ry="13.01"/><ellipse class="cls-1" cx="162.27" cy="84.1" rx="12.99" ry="13"/></g></svg>