<?xml version="1.0" encoding="UTF-8"?><svg id="Layer_2" xmlns="http://www.w3.org/2000/svg" viewBox="0 0 255.76 245"><defs><style>.cls-1{fill:#fff;}</style></defs><g id="Layer_1-2"><path class="cls-1" d="M255.76,99.42l-4.05,7.19-56.27,49.56,16.83,74.95c-.47,10.37-9.45,16.56-19.28,12.75l-64.84-38.53c-.86-.03-9.32,5.16-10.9,6.07-16.98,9.89-35.19,22.86-52.46,31.45-10.51,5.22-19.88.35-21.31-11.32l16.9-75.33c-19.02-17.82-39.64-33.94-58.28-52.13-4.88-7.79-.81-17.88,7.88-20.43l76.32-7.35L115.8,7.16c5.83-9.59,18.78-9.62,24.27.4l29.41,68.75,75.92,7.25c5.54,1.43,8.84,5.55,10.37,10.86v5ZM128.38,20.49l-1.12.64c-9.62,19.93-16.61,42.29-26.42,61.98-4.04,8.11-7.55,8.81-16.17,9.81-19.83,2.3-40.49,3.71-60.44,5.49-1.4.13-2.84-.07-4.24,0-.12,1,.84,1.65,1.49,2.25,16.52,15.27,34.3,29.31,50.98,44.43,3.91,4.12,4.51,7.78,3.85,13.38l-15.36,67.81,60.6-36.05c4.98-2.24,8.85-1.84,13.67.5l59.6,35.56-15.34-67.82c-.64-5.63-.1-9.21,3.84-13.37,16.16-14.99,34.64-28.73,50.48-43.93.4-.38,2.55-2.27,1.99-2.75-1.4-.08-2.84.12-4.24,0-19.95-1.78-40.62-3.19-60.44-5.49-9.06-1.05-12.16-1.73-16.32-10.15l-26.39-62.28Z"/></g></svg>