<?xml version="1.0" encoding="UTF-8"?><svg id="Layer_2" xmlns="http://www.w3.org/2000/svg" viewBox="0 0 195.23 219.99"><defs><style>.cls-1{fill:#fff;}</style></defs><g id="Layer_1-2"><path class="cls-1" d="M92.17.27c7.58-.77,15.19.07,22.17,3.12,19.93,12.97,43.83,23.99,62.91,37.89,10.94,7.97,16.65,19.75,17.45,33.21,1.49,25-.62,52.12-.7,77.2-2.82,17.4-12.84,24.53-26.56,33.17-15.33,9.65-33.68,21.75-49.54,29.92-12.32,6.35-25.35,7.06-38.07,1.25-20.73-9.48-41.64-26.92-62.16-37.57-10.69-7.85-16.35-19.84-17.13-33-1.49-25,.62-52.12.7-77.2,1.65-9.09,6.15-17.62,12.91-23.89,20.37-12.52,41.71-27.99,62.85-39.01,4.59-2.39,9.99-4.56,15.18-5.09ZM174.41,59.3l-2.92-3.74c-19.81-11.46-40.39-27.26-60.72-37.41-9.2-4.59-17.11-4.58-26.31,0-20.3,10.12-40.88,26.04-60.72,37.41l-2.92,3.74,73.77,44.37c1.96,1.34,4.11,1.33,6.06,0l73.77-44.37ZM90.15,203.83v-85.59L15.49,73.17v74.93c0,5.07,5.31,13.69,9.12,17.01,19.78,11.09,39.78,26.56,59.85,36.68,1.79.9,3.61,2,5.69,2.04ZM105.08,203.83c2.08-.04,3.9-1.14,5.69-2.04,15.45-7.79,34.27-20.3,49.2-29.73,8.28-5.23,19.78-12.47,19.78-23.95v-74.93l-74.66,45.06v85.59Z"/></g></svg>