<?xml version="1.0" encoding="UTF-8"?><svg id="Layer_2" xmlns="http://www.w3.org/2000/svg" viewBox="0 0 246.14 246.56"><defs><style>.cls-1{fill:#fff;}</style></defs><g id="Layer_1-2"><path class="cls-1" d="M125.02,0c2.51,1.41,4.77,2.9,5.26,6.04,1.43,9.15-1.02,21.71.04,31.24-1.51,8.63-12.94,8.63-14.45,0,1.06-9.52-1.39-22.09.04-31.24.49-3.14,2.75-4.63,5.26-6.04h3.85Z"/><path class="cls-1" d="M0,125.02v-3.85c1.41-2.51,2.9-4.77,6.04-5.26,9.15-1.43,21.71,1.02,31.24-.04,8.63,1.51,8.63,12.94,0,14.45-9.52-1.06-22.09,1.39-31.24-.04-3.14-.49-4.63-2.75-6.04-5.26Z"/><path class="cls-1" d="M119.15,58.32c-50.7,3.16-78.46,60.2-49.34,101.95,6.88,9.86,14.27,13.32,16.61,26.67,1.33,7.58-.48,12.57,3.77,19.79.71,1.21,3.82,4.75,3.95,5.19.86,2.9-.19,10.52.16,14.27,1.88,20.02,21.14,21.35,37.2,20.01,18.44-1.54,22.07-18.25,20.45-33.88,8.88-8.15,5.87-18.05,8.51-28.04,3.35-12.68,14.16-19.54,20.1-30.87,23.48-44.74-11.22-98.2-61.42-95.08ZM171.67,136.81c-5.47,20.08-22.75,26.24-26.31,49.18-.69,4.41.25,11.88-2.71,14.84-.16.16-.35.31-.55.46-1.2,1.82-2.99,3.23-3.47,5.43-.88,4.02-.49,8.32-.72,12.41,0,.12-.02.24-.04.36,0,.11,0,.22,0,.32.01,1.64.02,3.53-.37,5.27v1.16c0,1.64-3.58,4.86-5.27,5.31-2.02.53-15.76.57-17.94.11-.76-.16-1.86-.82-2.89-1.66-.5-.13-.98-.44-1.41-.99-3.28-4.24-2.42-9.43-1.87-14.46-.01-.9-.01-1.8,0-2.7-.36-2.45-1.26-4.78-2.72-7.14-1.08-1.74-2.47-3.31-3.22-5.23-.19-.48-.31-.96-.4-1.44-.09-.25-.17-.51-.23-.77-.82-3.94-.27-9.44-1.21-14.17-3.9-19.54-17.44-24.71-23.99-40.93-12.24-30.32,6.81-64.68,39.34-69.03,36.44-4.87,65.67,28.02,55.97,63.66Z"/><path class="cls-1" d="M208.08,115.99h32.48c7.67,1.83,7.33,13.08-.4,14.29-4.11.64-28.27.69-32.08-.08-7.44-1.51-7.43-12.51,0-14.21Z"/><path class="cls-1" d="M40.77,34.24c2.43-.26,4.28.91,6.1,2.31,4.12,3.18,17.09,16.11,20.17,20.23,2.75,3.69,3.14,8.59-1.18,11.24-3.37,2.07-6.16,1.19-9.07-.99-3.98-2.97-17.46-16.45-20.44-20.44-1.91-2.56-2.81-4.59-1.58-7.75.91-2.35,3.51-4.35,6-4.61Z"/><path class="cls-1" d="M203.77,34.23c2.95-.4,6.31,1.59,7.51,4.28,1.4,3.15.64,5.14-1.23,7.8-2.63,3.72-16.88,17.92-20.64,20.72-2.91,2.17-5.71,3.05-9.07.99-4.17-2.56-3.97-7.29-1.38-10.96,2.81-3.97,16.1-17.11,20.11-20.29,1.26-1,3.1-2.33,4.7-2.55Z"/></g></svg>