<?xml version="1.0" encoding="UTF-8"?><svg id="Layer_2" xmlns="http://www.w3.org/2000/svg" viewBox="0 0 248.88 248.75"><defs><style>.cls-1{fill:#fff;}</style></defs><g id="Layer_1-2"><path class="cls-1" d="M221.05,22.7c2.37-1.29,4.8-5.86,8.05-3.56,3.79,2.69-3.06,7.21-2.05,8.55,26.95,7.89,28.38,33.23,7.48,49.99-17.04,13.66-40.65,16.73-60.5,7.45-17.29,20.87-34.75,41.97-53.47,61.59-3.09,3.24-17.12,18.31-19.52,19.55-.96.49-1.02.49-1.98,0-1.3-.67-17.15-16.71-16.94-17.92l81.46-73.62c-10.92-22.13-4.17-53.41,15.56-68.43,17.51-13.32,38.14-4.33,41.92,16.41ZM15.51,238.67c4.59-3.88,15.97-17.75,19.56-19.52,1.26-.62,7.79,2.73,11.47,2.63,3.41-.09,7.63-1.72,10.44-3.64,4.76-3.26,37.97-36.3,41.07-40.93,2.2-3.29,2.25-5.65-.15-8.87-2.04-2.73-13.78-14.8-16.35-16.64-3.44-2.47-6.83-2.99-10.46-.45-9.09,12.25-37.25,31.66-42.26,44.73-2.89,7.54,1.56,15.8.76,17.7-1.15,2.7-16.12,15.5-19.51,19.56-1.22,1.46-10.72,14.84-10.03,15.46,1.04.93,13.8-8.61,15.47-10.02Z"/></g></svg>