<?xml version="1.0" encoding="UTF-8"?><svg id="Layer_2" xmlns="http://www.w3.org/2000/svg" viewBox="0 0 311.28 311.42"><defs><style>.cls-1{fill:#fff;}</style></defs><g id="Layer_1-2"><path class="cls-1" d="M247.56.16c54.83-3.81,84.17,61.75,47.33,101.22l-189.45,189.31c-29.51,8.42-60.4,13.07-90.34,20.44-7.14,1.47-13.86-2.75-15.1-9.98,5.31-31.01,12.91-61.89,19.38-92.77,61.77-65.14,127.05-127.51,190.15-191.61C220.51,7.19,232.77,1.19,247.56.16ZM248.3,24.11c-7.08.61-14.16,3.56-19.66,8.03-6.08,4.94-21.62,20.14-26.25,26.16-.43.56-1.22.88-1.04,1.79l50.47,50.62c16.65-18.48,43.12-33.56,33.52-62.7-5.1-15.47-20.91-25.28-37.05-23.9ZM27.64,283.63l64.77-14.2,141.5-140.75-50.2-51.63L41.84,218.86l-14.2,64.76Z"/></g></svg>