<?xml version="1.0" encoding="UTF-8"?><svg id="Layer_2" xmlns="http://www.w3.org/2000/svg" viewBox="0 0 383.29 263.55"><defs><style>.cls-1{fill:#fff;}</style></defs><g id="Layer_1-2"><path class="cls-1" d="M383.29,30.72v202.11c-3.57,17.87-16.55,29.31-34.82,30.68l-312.91.04c-19.07-1.3-33.24-13.36-35.51-32.6l-.05-196.89C1.37,14.43,16.09,1.01,35.56,0l312.91.04c16.66.51,32.8,13.89,34.82,30.68ZM34.29,22.68c-6.3.85-11.47,5.63-11.83,12.13v193.93c.49,7.71,7.21,12.41,14.59,12.35h309.95c6.79-.59,11.06-3.29,13.47-9.74l.38-196.54c-.49-7.71-7.21-12.41-14.59-12.35l-311.98.23Z"/><path class="cls-1" d="M152.53,72.81c5.86-1.19,26.82-.71,33.5-.16,59.18,4.83,73.23,90.21,16.61,113.9-11.89,4.97-35.97,5.92-48.81,4.37-3.98-.48-7.19-3.4-8.76-6.95l-.59-101.99c.34-3.87,4.29-8.4,8.05-9.17ZM166.96,168.45h18.34c14.75,0,29.8-18.61,31.05-32.57,1.54-17.22-12.44-40.78-31.05-40.78h-18.34v73.36Z"/><path class="cls-1" d="M274.75,154.98v28.07c0,.22-1.83,3.21-2.25,3.74-6.42,8.17-19.06,3.85-20.01-6.18,1.66-30.81-2.88-65.25-.22-95.64.55-6.24,3.4-11.51,10.12-12.34,9.23-1.14,36.69-.73,45.14,2.05,32.41,10.67,36.87,54.9,9.33,73.93l17.4,26.59c4.85,12.29-10.18,22.3-19.7,10.72-7.48-9.1-13.18-21.62-20.71-30.93h-19.09ZM274.75,132.52h22.83c.65,0,5.22-2.21,6.17-2.81,10.15-6.48,12.05-20.01,3.93-29-1.36-1.51-7.67-5.62-9.35-5.62h-23.58v37.43Z"/><path class="cls-1" d="M70.4,120.55h38.18v-40.05c0-.22,1.83-3.21,2.25-3.74,6.18-7.86,18.6-4.25,19.87,5.57-1.04,31.07,2.54,64.71.37,95.51-.58,8.17-4.7,14.42-13.83,13.02-2.81-.43-8.66-5.18-8.66-7.81v-40.05h-38.18v40.05c0,2.63-5.85,7.38-8.66,7.81-8.54,1.31-13.23-4.29-13.83-12.27-2.33-31.02,1.66-65.09.21-96.41,1.65-9.69,13.89-13.24,20.03-5.42.42.53,2.25,3.52,2.25,3.74v40.05Z"/></g></svg>