<?xml version="1.0" encoding="UTF-8"?>
<svg id="Layer_1" xmlns="http://www.w3.org/2000/svg" version="1.1" viewBox="0 0 409.6 409.6">
  <!-- Generator: Adobe Illustrator 29.4.0, SVG Export Plug-In . SVG Version: 2.1.0 Build 152)  -->
  <defs>
    <style>
      .st0 {
        fill: #fff;
      }
    </style>
  </defs>
  <path class="st0" d="M117.1,409.6h176.4c15.1-1.8,29.5-15.6,32.4-30.9,1.7-115,1.7-231.6,0-346.6-3.8-17.3-18.3-29.7-36-30.9-29-1.9-59.6-1-89.3-.2-27,.8-54.9,1.5-81.6.2-17.1,1.8-30.8,14.2-34.3,30.9-1.7,115-1.7,231.6,0,346.6,3.3,15.8,16,27.8,32.5,30.9ZM291,395.2H118.3c-11-1.8-19.3-10.8-20.3-22v-.3s0-335.9,0-335.9v-.2c1.6-10.3,8.6-18.3,18.5-20.8h.4c0-.1,174.9-.3,174.9-.3h.3c10.9,1.8,19.2,10.8,20.2,22v.3s0,335.1,0,335.1v.2c-1.1,11.6-10.3,21.1-21.3,22h-.1ZM205.2,340.1c-9.6,0-17.4,7.8-17.4,17.3s7.8,17.3,17.4,17.3,17.4-7.8,17.4-17.3-7.8-17.3-17.4-17.3ZM200.1,49.6c5.2,1,38.5,1.1,44.7,0,3.8-.6,5.3-3.7,5.5-6.3.1-2.6-1-6-4.7-7.1h-46.4c-3.2,1.4-4.4,4.7-4.3,7.4,0,1.2.7,5.1,5.1,6h0ZM167.1,35.9c-3.8,0-7,3.1-7,7s3.1,7,7,7,.9,0,1.3-.1l-.8-.2h1.5c2.8-.9,4.9-3.5,4.9-6.7s-3.1-7-7-7Z"/>
</svg>