<?xml version="1.0" encoding="UTF-8"?><svg id="Layer_2" xmlns="http://www.w3.org/2000/svg" viewBox="0 0 14.33 17.99"><defs><style>.cls-1{fill:#fff;}.cls-2{fill:none;}</style></defs><g id="Layer_1-2"><path class="cls-1" d="M8.97,15.5l-.25-.97c2.69-.7,4.57-3.14,4.57-5.93,0-3.38-2.75-6.13-6.13-6.13S1.04,5.23,1.04,8.61c0,2.78,1.88,5.22,4.57,5.93l-.25.97C2.22,14.68.04,11.84.04,8.61.04,4.68,3.24,1.48,7.17,1.48s7.13,3.2,7.13,7.13c0,3.24-2.19,6.08-5.32,6.9Z"/><path class="cls-1" d="M7.17,10.85c-1.24,0-2.24-1.01-2.24-2.24s1.01-2.24,2.24-2.24,2.24,1.01,2.24,2.24-1.01,2.24-2.24,2.24ZM7.17,7.36c-.69,0-1.24.56-1.24,1.24s.56,1.24,1.24,1.24,1.24-.56,1.24-1.24-.56-1.24-1.24-1.24Z"/><path class="cls-1" d="M7.67,17.82h-1v-2h1v2ZM7.67,14.82h-1v-2h1v2ZM7.67,11.82h-1v-2h1v2Z"/><rect class="cls-2" width="14.33" height="17.99"/></g></svg>