<?xml version="1.0" encoding="UTF-8"?>
<svg id="Layer_1" xmlns="http://www.w3.org/2000/svg" version="1.1" xmlns:x="http://ns.adobe.com/Extensibility/1.0/" viewBox="0 0 100 125">
  <!-- Generator: Adobe Illustrator 29.4.0, SVG Export Plug-In . SVG Version: 2.1.0 Build 152)  -->
  <defs>
    <style>
      .st0 {
        fill: #fff;
      }
    </style>
  </defs>
  <path class="st0" d="M72.2,55l-11-6.7c-.7-.4-1.3-.7-2-.9-1.6-.4-3,0-4.3.7-.7.4-1.2,1-1.7,1.6v-19.6c0-3.3-2.7-6-6-6s-6,2.7-6,6v19.3c-.4-.2-.7-.3-1.1-.4-1.4-.3-2.8,0-4,.7-2.8,1.8-3.8,5.5-2.2,8.4l.5.9c0,0,0,.2,0,.4v10.1c0,5.5,2.1,10.6,6,14.5,1.2,1.2,2.5,2.3,3.8,3.3,1.5,1.1,2.3,2.7,2.3,4.5s.5,1.2,1.2,1.2,1.2-.5,1.2-1.2c0-2.5-1.2-4.9-3.3-6.4-1.3-.9-2.5-1.9-3.6-3-3.4-3.4-5.3-8-5.3-12.9v-10.1c0-.5,0-1-.4-1.5l-.3-.9c-1-1.9-.4-4.2,1.4-5.3.7-.4,1.4-.5,2.2-.4.7.2,1.2.5,1.6,1.1v12.6c0,1.6-.5,3.2-1.4,4.6-.4.5-.2,1.3.3,1.6.5.4,1.3.2,1.6-.3,1.2-1.8,1.8-3.8,1.8-5.9V30.1c0-2,1.6-3.6,3.6-3.6s3.6,1.6,3.6,3.6v24.7c0,.6.4,1.1,1,1.2.6,0,1.1-.3,1.3-.9.2-1,1.2-3.8,3-4.9.8-.5,1.6-.6,2.5-.4.4,0,.8.3,1.3.6l11,6.7c3.1,1.8,5,5.2,5,8.8v15c0,2.8-1.1,5.3-3,7.3h0c-1.6,1.6-2.4,3.6-2.4,5.7s.5,1.2,1.2,1.2,1.2-.5,1.2-1.2c0-1.5.6-2.9,1.8-4,2.4-2.4,3.7-5.6,3.7-9v-15c0-4.5-2.4-8.6-6.2-10.9Z"/>
  <path class="st0" d="M23.1,32.6c-.5-6.5,1.5-12.7,5.7-17.7,4.2-4.9,10.1-7.9,16.6-8.4,6.4-.5,12.7,1.5,17.6,5.7s7.9,10.1,8.5,16.5c.4,5.4-.9,10.6-3.8,15.1-.2.3,0,.8.2,1,.3.2.8,0,1-.2,3.1-4.8,4.5-10.3,4-16-.6-6.8-3.7-13.1-9-17.5-5.2-4.4-11.9-6.6-18.7-6s-13.1,3.7-17.5,9c-4.4,5.2-6.6,11.9-6,18.7.5,6.5,3.5,12.6,8.4,17,.1,0,.3.2.5.2s.4,0,.5-.2c.3-.3.2-.7-.1-1-4.6-4.3-7.4-10-7.9-16.2Z"/>
  <path class="st0" d="M61.3,40.8c.3.2.8,0,1-.2,2.1-3.3,3.1-7.1,2.8-11-.8-9.7-9.3-17-19.1-16.2-9.7.8-17,9.3-16.2,19.1.3,3.7,1.8,7.2,4.2,10.1,0,.2.3.2.5.2s.3,0,.5-.2c.3-.3.3-.7,0-1-2.2-2.6-3.6-5.8-3.8-9.3-.7-9,6-16.8,14.9-17.5,8.9-.7,16.8,6,17.5,14.9.3,3.6-.6,7.1-2.5,10.1-.3.4-.2.8.1,1Z"/>
</svg>