<?xml version="1.0" encoding="UTF-8"?>
<svg id="Layer_1" xmlns="http://www.w3.org/2000/svg" version="1.1" xmlns:x="http://ns.adobe.com/Extensibility/1.0/" viewBox="0 0 100 125">
  <!-- Generator: Adobe Illustrator 29.4.0, SVG Export Plug-In . SVG Version: 2.1.0 Build 152)  -->
  <defs>
    <style>
      .st0 {
        fill: #fff;
      }
    </style>
  </defs>
  <path class="st0" d="M80.5,69.2l-15.1-9.2c-1-.5-1.8-1-2.7-1.2-2.2-.5-4.1,0-5.9,1-1,.5-1.6,1.4-2.3,2.2v-26.9c0-4.5-3.7-8.2-8.2-8.2s-8.2,3.7-8.2,8.2v26.5c-.5-.3-1-.4-1.5-.5-1.9-.4-3.8,0-5.5,1-3.8,2.5-5.2,7.6-3,11.5l.7,1.2v14.4c0,7.6,2.9,14.6,8.2,19.9,1.6,1.6,3.4,3.2,5.2,4.5,2.1,1.5,3.2,3.7,3.2,6.2s.7,1.6,1.6,1.6,1.6-.7,1.6-1.6c0-3.4-1.6-6.7-4.5-8.8-1.8-1.2-3.4-2.6-4.9-4.1-4.7-4.7-7.3-11-7.3-17.7v-13.9c0-.7,0-1.4-.5-2.1l-.4-1.2c-1.4-2.6-.5-5.8,1.9-7.3,1-.5,1.9-.7,3-.5,1,.3,1.6.7,2.2,1.5v17.3c0,2.2-.7,4.4-1.9,6.3-.5.7-.3,1.8.4,2.2.7.5,1.8.3,2.2-.4,1.6-2.5,2.5-5.2,2.5-8.1v-47.9c0-2.7,2.2-4.9,4.9-4.9s4.9,2.2,4.9,4.9v33.9c0,.8.5,1.5,1.4,1.6.8,0,1.5-.4,1.8-1.2.3-1.4,1.6-5.2,4.1-6.7,1.1-.7,2.2-.8,3.4-.5.5,0,1.1.4,1.8.8l15.1,9.2c4.3,2.5,6.9,7.1,6.9,12.1v20.6c0,3.8-1.5,7.3-4.1,10h0c-2.2,2.2-3.3,4.9-3.3,7.8s.7,1.6,1.6,1.6,1.6-.7,1.6-1.6c0-2.1.8-4,2.5-5.5,3.3-3.3,5.1-7.7,5.1-12.4v-20.6c0-6.2-3.3-11.8-8.5-15h.1ZM13.1,38.4c-.7-8.9,2.1-17.4,7.8-24.3,5.8-6.7,13.9-10.8,22.8-11.5,8.8-.7,17.4,2.1,24.2,7.8,6.7,5.8,10.8,13.9,11.7,22.7.5,7.4-1.2,14.6-5.2,20.7-.3.4,0,1.1.3,1.4.4.3,1.1,0,1.4-.3,4.3-6.6,6.2-14.1,5.5-22-.8-9.3-5.1-18-12.4-24C62,2.8,52.8-.2,43.5.6s-18,5.1-24,12.4c-6,7.1-9.1,16.3-8.2,25.7.7,8.9,4.8,17.3,11.5,23.3.1,0,.4.3.7.3s.5,0,.7-.3c.4-.4.3-1-.1-1.4-6.3-5.9-10.2-13.7-10.8-22.2ZM65.6,49.7c.4.3,1.1,0,1.4-.3,2.9-4.5,4.3-9.7,3.8-15.1-1.1-13.3-12.8-23.3-26.2-22.2-13.3,1.1-23.3,12.8-22.2,26.2.4,5.1,2.5,9.9,5.8,13.9,0,.3.4.3.7.3s.4,0,.7-.3c.4-.4.4-1,0-1.4-3-3.6-4.9-8-5.2-12.8-1-12.4,8.2-23.1,20.5-24,12.2-1,23.1,8.2,24,20.5.4,4.9-.8,9.7-3.4,13.9-.4.5-.3,1.1.1,1.4h.1Z"/>
</svg>