<?xml version="1.0" encoding="UTF-8"?>
<svg id="Layer_2" xmlns="http://www.w3.org/2000/svg" version="1.1" viewBox="0 0 383.3 263.5">
  <!-- Generator: Adobe Illustrator 29.4.0, SVG Export Plug-In . SVG Version: 2.1.0 Build 152)  -->
  <defs>
    <style>
      .st0 {
        fill: #fff;
      }
    </style>
  </defs>
  <path class="st0" d="M105.6,183.5l-6.7-17.7h-57.3l-6.7,18.1c-2.6,7-4.9,11.8-6.7,14.3-1.9,2.5-4.9,3.7-9.1,3.7s-6.8-1.3-9.5-3.9c-2.8-2.6-4.1-5.6-4.1-8.9s.3-3.9,1-6c.6-2,1.7-4.9,3.2-8.6l36-91.5c1-2.6,2.3-5.8,3.7-9.5,1.4-3.7,3-6.7,4.6-9.2,1.6-2.4,3.8-4.4,6.4-5.9,2.7-1.5,5.9-2.3,9.8-2.3s7.3.8,9.9,2.3c2.7,1.5,4.8,3.4,6.4,5.8,1.6,2.4,3,4.9,4.1,7.6,1.1,2.7,2.5,6.4,4.3,10.9l36.8,90.9c2.9,6.9,4.3,11.9,4.3,15.1s-1.4,6.3-4.1,9c-2.7,2.7-6,4.1-9.8,4.1s-4.2-.4-5.8-1.2c-1.6-.8-2.9-1.9-4-3.3-1.1-1.4-2.3-3.5-3.5-6.3-1.2-2.8-2.3-5.4-3.2-7.5ZM49.1,144.4h42.1l-21.2-58.1-20.9,58.1Z"/>
  <path class="st0" d="M179.4,71.1v40.1c4.9-5.1,10-9,15.1-11.8,5.1-2.7,11.5-4.1,19-4.1s16.3,2.1,22.9,6.2c6.6,4.1,11.7,10.1,15.3,18,3.6,7.8,5.4,17.2,5.4,27.9s-1,15.2-3,21.9-4.9,12.4-8.8,17.2c-3.8,4.9-8.5,8.6-14,11.3-5.5,2.7-11.5,4-18.1,4s-7.8-.5-11.4-1.4-6.6-2.2-9.1-3.8c-2.5-1.6-4.6-3.2-6.4-4.9-1.8-1.7-4.1-4.2-7-7.5v2.6c0,4.9-1.2,8.7-3.6,11.2-2.4,2.5-5.4,3.8-9,3.8s-6.7-1.3-8.9-3.8c-2.2-2.5-3.3-6.3-3.3-11.2v-114.5c0-5.3,1.1-9.3,3.2-12.1,2.1-2.7,5.1-4.1,9-4.1s7.1,1.3,9.3,3.9c2.2,2.6,3.3,6.3,3.3,11.1ZM180.7,149.1c0,10.4,2.4,18.5,7.2,24.1,4.8,5.6,11,8.4,18.8,8.4s12.3-2.9,17.1-8.6c4.8-5.7,7.2-13.9,7.2-24.6s-1-12.9-3-17.9c-2-5-4.8-8.9-8.5-11.6-3.7-2.7-7.9-4.1-12.8-4.1s-9.4,1.4-13.4,4.1c-3.9,2.7-7,6.7-9.2,11.8-2.2,5.2-3.4,11.3-3.4,18.4Z"/>
  <path class="st0" d="M372.3,169.3c0,3.3-1,6.8-2.9,10.5-2,3.7-4.9,7.3-8.9,10.6-4,3.4-9,6.1-15.1,8.1-6.1,2-12.9,3.1-20.6,3.1-16.2,0-28.9-4.7-38-14.2-9.1-9.4-13.6-22.1-13.6-38s2.1-20.3,6.2-28.5c4.2-8.3,10.2-14.7,18.1-19.2s17.3-6.8,28.2-6.8,13,1,18.7,3c5.7,2,10.5,4.5,14.4,7.7,3.9,3.1,6.9,6.5,9,10,2.1,3.6,3.1,6.9,3.1,9.9s-1.2,5.8-3.5,8c-2.3,2.2-5.2,3.3-8.5,3.3s-4-.6-5.4-1.7c-1.4-1.1-3.1-2.9-4.9-5.4-3.2-4.9-6.5-8.5-10-11-3.5-2.4-7.9-3.7-13.3-3.7-7.8,0-14,3-18.7,9.1-4.7,6.1-7.1,14.3-7.1,24.8s.6,9.5,1.8,13.6c1.2,4.1,3,7.7,5.3,10.6,2.3,2.9,5.1,5.1,8.4,6.6,3.3,1.5,6.9,2.3,10.8,2.3s9.8-1.2,13.5-3.7c3.7-2.4,7.1-6.1,9.9-11.1,1.6-2.9,3.3-5.3,5.2-6.9,1.9-1.7,4.1-2.5,6.8-2.5s5.9,1.2,8,3.7c2.1,2.4,3.2,5,3.2,7.8Z"/>
</svg>