<?xml version="1.0" encoding="UTF-8"?><svg id="Layer_2" xmlns="http://www.w3.org/2000/svg" viewBox="0 0 371.14 371.14"><defs><style>.cls-1{fill:#fff;}</style></defs><g id="Layer_1-2"><path class="cls-1" d="M185.57,371.14C83.25,371.14,0,287.89,0,185.57S83.25,0,185.57,0s185.57,83.25,185.57,185.57-83.25,185.57-185.57,185.57ZM185.58,24.11C96.55,24.11,24.13,96.54,24.13,185.56s72.43,161.45,161.45,161.45,161.45-72.43,161.45-161.45S274.6,24.11,185.58,24.11ZM245.96,232.11c-.57,0-1.15-.04-1.73-.12l-.53-.08-.47-.25c-6.23-3.35-12.63-6.7-18.82-9.93-12.18-6.36-24.78-12.95-36.82-19.98-1.12-.66-2.15-1.2-3.15-1.73-5.03-2.67-9.01-4.79-9.78-13.87l-.02-.22v-.22c1.04-15.8.44-32.75-.15-49.14-.64-17.97-1.31-36.55.16-53.86.77-9.07,6.09-13.34,11.02-13.56,4.77-.19,10.25,3.34,11.71,11.73l.04.51.12,100.79.02.02,55.85,30.64.31.32c3.47,3.58,4.29,8.68,2.08,13-1.9,3.74-5.66,5.96-9.86,5.96Z"/></g></svg>