<?xml version="1.0" encoding="UTF-8"?><svg id="Layer_2" xmlns="http://www.w3.org/2000/svg" viewBox="0 0 279.9 232.19"><defs><style>.cls-1{fill:#fff;}</style></defs><g id="Layer_1-2"><path class="cls-1" d="M41.91,47.78h150.07c70.91,4.23,111.77,82.03,72.85,142.46-24.4,37.88-63.09,42.03-104.76,41.95-27.82-.05-57.82-.09-82.64-.23-14.35.31-18.68-18.69-5.04-23.81,37.72-1.76,76.78,1.76,114.35-.18,92.93-4.8,89.96-132.91,0-136.22H41.92c-.34,1.29.54,1.49,1.11,2.24,6.87,8.96,19.34,17.23,26.22,26.18,9.11,11.83-5.05,25.99-16.88,16.88-16.98-13.08-32.78-35.81-49.78-49.78-4.38-5.99-2.77-11.1,1.51-16.5C16.88,34.67,37.38,20.03,50.89,3.99c9.91-9.38,24.11-.98,20.62,12.38-1.78,6.78-25.04,23.98-29.59,31.41Z"/></g></svg>